<?xml version="1.0" encoding="utf-8"?>
<!-- Svg Vector Icons : http://www.onlinewebfonts.com/icon -->
<!DOCTYPE svg PUBLIC "-//W3C//DTD SVG 1.1//EN" "http://www.w3.org/Graphics/SVG/1.1/DTD/svg11.dtd">
<svg version="1.1" xmlns="http://www.w3.org/2000/svg" xmlns:xlink="http://www.w3.org/1999/xlink" x="0px" y="0px" viewBox="0 0 1000 1000" enable-background="new 0 0 1000 1000" xml:space="preserve">
<metadata> Svg Vector Icons : http://www.onlinewebfonts.com/icon </metadata>
<g><path d="M787.2,249.3c13.3,13.2,13.3,34.7,0,47.9c-13.3,13.3-24,24-24,24l24,24c26.5,26.5,26.5,69.4,0,95.9L427.6,800.7c-26.5,26.5-69.4,26.5-95.9,0l-24-24l-95.9,96l47.9,47.9c13.3,13.2,13.3,34.7,0,47.9c-13.3,13.2-34.7,13.2-47.9,0L19.9,776.7c-13.2-13.2-13.2-34.7,0-47.9c13.3-13.2,34.7-13.2,47.9,0l47.9,47.9l95.9-95.9l-24-24c-26.5-26.4-26.5-69.4,0-95.9l359.7-359.6c26.5-26.5,69.4-26.5,95.9,0l24,24c0,0,10.8-10.8,24-24c13.3-13.3,34.7-13.3,47.9,0l12,12L943.1,21.5v47.9L775.2,237.3L787.2,249.3L787.2,249.3z M619.4,225.3c-13.2-13.3-34.7-13.3-47.9,0l-71.9,71.9l47.9,47.9l-24,24l-47.9-47.9l-71.9,71.9l47.9,48l-24,24l-48-48l-24,24l95.9,95.9l-24,24l-95.9-95.9L259.7,537l95.9,95.9l-24,24L235.7,561l-24,24c-13.3,13.2-13.3,34.7,0,47.9l143.9,143.9c13.3,13.3,34.7,13.3,48,0l359.6-359.6c13.3-13.2,13.3-34.7,0-47.9L619.4,225.3L619.4,225.3z M523.5,273.3l24-24l95.9,95.9l-24,24L523.5,273.3z M523.5,465.1l-95.9-95.9l24-24l95.9,95.9L523.5,465.1z M283.7,513.1l24-24l47.9,47.9l-24,24L283.7,513.1z M990,255.6c0,25.4-20.6,46-46,46c-25.5,0-46-20.6-46-46c0-25.5,46-95,46-95S990,230.2,990,255.6z"/></g>
</svg>